<svg width="20" height="21" viewBox="0 0 20 21" fill="none" xmlns="http://www.w3.org/2000/svg">
<path d="M5.57458 18.8605C5.57458 20.0403 6.48865 21.0001 7.61235 21.0001C8.73605 21.0001 9.65044 20.0403 9.65044 18.8605C9.65044 17.6806 8.73605 16.7205 7.61235 16.7205C6.48865 16.7205 5.57458 17.6806 5.57458 18.8605ZM8.3171 18.8605C8.3171 19.2682 8.00102 19.6001 7.61235 19.6001C7.224 19.6001 6.90792 19.2682 6.90792 18.8605C6.90792 18.4523 7.224 18.1205 7.61235 18.1205C8.00102 18.1205 8.3171 18.4523 8.3171 18.8605Z" fill="#333333"/>
<path d="M13.292 18.8605C13.292 20.0403 14.2064 21.0001 15.3301 21.0001C16.4538 21.0001 17.3678 20.0403 17.3678 18.8605C17.3678 17.6806 16.4538 16.7205 15.3301 16.7205C14.2064 16.7205 13.292 17.6806 13.292 18.8605ZM16.0345 18.8605C16.0345 19.2682 15.7184 19.6001 15.3301 19.6001C14.9414 19.6001 14.6253 19.2682 14.6253 18.8605C14.6253 18.4523 14.9414 18.1205 15.3301 18.1205C15.7184 18.1205 16.0345 18.4523 16.0345 18.8605Z" fill="#333333"/>
<path d="M0.666669 1.4H2.74707L5.1989 14.0058C5.4183 15.1331 6.37273 15.951 7.46843 15.951H15.8444C16.9401 15.951 17.8945 15.1331 18.1139 14.0058L19.5049 6.85302C19.6445 6.13457 19.471 5.39663 19.0293 4.82856C18.5876 4.26049 17.9336 3.93476 17.2354 3.93476H4.60136L3.94466 0.55986C3.88119 0.23413 3.60807 0 3.29134 0H0.666669C0.2985 0 0 0.313425 0 0.700002C0 1.08658 0.2985 1.4 0.666669 1.4ZM17.2353 5.33477C17.5316 5.33477 17.8092 5.47286 17.9967 5.71417C18.1842 5.95513 18.2575 6.26822 18.1982 6.5731L16.8073 13.7255C16.7145 14.2037 16.3092 14.551 15.8444 14.551H7.46842C7.00358 14.551 6.59831 14.2037 6.50554 13.7255L4.87337 5.33477H17.2353Z" fill="#333333"/>
<path d="M9.35905 12.5314C9.72721 12.5314 10.0257 12.2179 10.0257 11.8314V8.05449C10.0257 7.66792 9.72722 7.35449 9.35905 7.35449C8.99089 7.35449 8.69238 7.66792 8.69238 8.05449V11.8314C8.69238 12.2179 8.99089 12.5314 9.35905 12.5314Z" fill="#333333"/>
<path d="M13.5831 12.5314C13.9512 12.5314 14.2497 12.2179 14.2497 11.8314V8.05449C14.2497 7.66792 13.9512 7.35449 13.5831 7.35449C13.2149 7.35449 12.9164 7.66792 12.9164 8.05449V11.8314C12.9164 12.2179 13.2149 12.5314 13.5831 12.5314Z" fill="#333333"/>
</svg>
