<svg width="32" height="32" viewBox="0 0 32 32" fill="none" xmlns="http://www.w3.org/2000/svg">
<g clip-path="url(#clip0_2243_9812)">
<path d="M16 32C24.8366 32 32 24.8366 32 16C32 7.16344 24.8366 0 16 0C7.16344 0 0 7.16344 0 16C0 24.8366 7.16344 32 16 32Z" fill="#AAA4C2"/>
<path d="M22.8281 16.2558C23.1029 16.2558 23.3256 16.033 23.3256 15.7583C23.3256 15.4835 23.1029 15.2607 22.8281 15.2607C22.5533 15.2607 22.3306 15.4835 22.3306 15.7583C22.3306 16.033 22.5533 16.2558 22.8281 16.2558Z" fill="white"/>
<path d="M21.7301 15.2705C21.0881 15.2705 20.4462 15.3363 19.8235 15.4647C19.7609 14.5451 19.5507 13.8598 19.1992 13.4281C18.891 13.0493 18.4674 12.8487 17.9763 12.8487C17.1176 12.8487 16.1049 13.2034 15.3699 13.5211C15.6171 13.0669 15.8401 12.6304 16.0327 12.2196C17.0486 10.0514 17.1626 8.77867 16.3906 8.21696C15.7214 7.72907 14.5675 8.23782 13.9383 8.58448C12.4795 9.39013 10.95 10.8891 11.0431 12.2773C11.2822 15.8707 12.8085 18.3743 12.8727 18.4787L12.8952 18.514L13.7281 17.9988L13.7056 17.9635C13.6912 17.9394 12.2436 15.5642 12.0205 12.2131C11.9627 11.3401 13.1584 10.1621 14.3139 9.49766C15.2929 8.93434 15.7679 8.97928 15.8129 9.00977C15.9782 9.13014 16.052 9.86679 15.1484 11.7975C14.5241 13.1311 13.7297 14.391 13.696 14.4439L13.6783 14.4712L14.3331 15.1437L14.362 15.126C14.3829 15.1132 16.5415 13.8277 17.9763 13.8277C18.1737 13.8277 18.3149 13.8951 18.4385 14.0459C18.676 14.338 18.8188 14.9174 18.8509 15.7214C16.8897 16.3538 15.5561 17.4868 14.935 18.1095C13.8164 19.2281 12.5485 20.496 13.5788 22.117C13.9801 22.7493 15.4951 24.3365 16.6875 24.3365C17.88 24.3365 18.737 22.9932 19.3934 19.8444C19.5747 18.9762 19.7978 17.6874 19.8363 16.4645C20.4526 16.3217 21.0898 16.2495 21.7285 16.2495H21.7702V15.2689H21.7285L21.7301 15.2705ZM18.8381 16.7614C18.7883 17.6168 18.6503 18.6119 18.4353 19.6438C17.7965 22.7108 17.1321 23.3543 16.6891 23.3543C16.0311 23.3543 14.7825 22.1779 14.407 21.5889C13.8276 20.6774 14.4936 19.9359 15.6299 18.7996C16.1435 18.2861 17.238 17.3456 18.8397 16.7598L18.8381 16.7614Z" fill="white"/>
</g>
<defs>
<clipPath id="clip0_2243_9812">
<rect width="32" height="32" fill="white"/>
</clipPath>
</defs>
</svg>
