<svg width="50" height="50" viewBox="0 0 50 50" fill="none" xmlns="http://www.w3.org/2000/svg">
<mask id="mask0_2285_5572" style="mask-type:luminance" maskUnits="userSpaceOnUse" x="0" y="0" width="50" height="50">
<path d="M50 25C50 11.1929 38.8071 0 25 0C11.1929 0 0 11.1929 0 25C0 38.8071 11.1929 50 25 50C38.8071 50 50 38.8071 50 25Z" fill="white"/>
</mask>
<g mask="url(#mask0_2285_5572)">
<path d="M50 25C50 11.1929 38.8071 0 25 0C11.1929 0 0 11.1929 0 25C0 38.8071 11.1929 50 25 50C38.8071 50 50 38.8071 50 25Z" fill="white"/>
<g filter="url(#filter0_f_2285_5572)">
<path d="M-3.87461 26.0008C4.53393 26.0008 11.3504 19.1843 11.3504 10.7758C11.3504 2.36725 4.53393 -4.44922 -3.87461 -4.44922C-12.2831 -4.44922 -19.0996 2.36725 -19.0996 10.7758C-19.0996 19.1843 -12.2831 26.0008 -3.87461 26.0008Z" fill="#FAF9FF"/>
</g>
<g filter="url(#filter1_f_2285_5572)">
<path d="M54.0258 57.45C62.4343 57.45 69.2508 50.6335 69.2508 42.225C69.2508 33.8165 62.4343 27 54.0258 27C45.6172 27 38.8008 33.8165 38.8008 42.225C38.8008 50.6335 45.6172 57.45 54.0258 57.45Z" fill="#FAF9FF"/>
</g>
<g clip-path="url(#clip0_2285_5572)">
<path d="M24.9993 39.0439C17.2803 39.0439 10.9993 32.763 10.9993 25.0439C10.9993 17.3249 17.2803 11.0439 24.9993 11.0439C32.7184 11.0439 38.9993 17.3249 38.9993 25.0439C38.9993 32.763 32.7184 39.0439 24.9993 39.0439ZM24.9993 12.0182C17.8168 12.0182 11.9715 17.8614 11.9715 25.046C11.9715 32.2305 17.8148 38.0738 24.9993 38.0738C32.1839 38.0738 38.0271 32.2305 38.0271 25.046C38.0271 17.8614 32.1839 12.0182 24.9993 12.0182Z" fill="#AAA4C2"/>
<path d="M33.5813 25.3453C33.9266 25.3453 34.2066 25.0654 34.2066 24.72C34.2066 24.3747 33.9266 24.0947 33.5813 24.0947C33.2359 24.0947 32.956 24.3747 32.956 24.72C32.956 25.0654 33.2359 25.3453 33.5813 25.3453Z" fill="#AAA4C2"/>
<path d="M32.2014 24.1074C31.3945 24.1074 30.5877 24.1901 29.8051 24.3514C29.7264 23.1957 29.4622 22.3344 29.0204 21.7918C28.6331 21.3157 28.1006 21.0636 27.4834 21.0636C26.4043 21.0636 25.1315 21.5094 24.2077 21.9088C24.5183 21.3379 24.7987 20.7893 25.0407 20.2729C26.3175 17.5478 26.4608 15.9483 25.4905 15.2423C24.6494 14.6291 23.1991 15.2685 22.4084 15.7042C20.5749 16.7168 18.6526 18.6007 18.7696 20.3455C19.0702 24.8618 20.9884 28.0084 21.0691 28.1395L21.0973 28.1839L22.1442 27.5364L22.116 27.492C22.0978 27.4618 20.2784 24.4765 19.998 20.2648C19.9254 19.1675 21.4281 17.687 22.8804 16.8519C24.1108 16.1439 24.7079 16.2004 24.7644 16.2387C24.9721 16.39 25.0649 17.3159 23.9293 19.7424C23.1447 21.4186 22.1462 23.002 22.1038 23.0686L22.0817 23.1029L22.9046 23.948L22.9409 23.9258C22.9672 23.9097 25.6801 22.294 27.4834 22.294C27.7315 22.294 27.909 22.3787 28.0643 22.5683C28.3629 22.9355 28.5424 23.6636 28.5827 24.6742C26.1178 25.4689 24.4416 26.893 23.661 27.6756C22.2551 29.0815 20.6616 30.675 21.9566 32.7123C22.4609 33.507 24.365 35.5019 25.8637 35.5019C27.3624 35.5019 28.4395 33.8136 29.2645 29.8561C29.4924 28.7648 29.7728 27.1451 29.8212 25.6081C30.5958 25.4286 31.3966 25.3378 32.1994 25.3378H32.2518V24.1054H32.1994L32.2014 24.1074ZM28.5666 25.9812C28.5041 27.0564 28.3306 28.3069 28.0603 29.6039C27.2575 33.4586 26.4224 34.2674 25.8657 34.2674C25.0387 34.2674 23.4694 32.7889 22.9974 32.0486C22.2693 30.9029 23.1063 29.971 24.5344 28.5429C25.1799 27.8975 26.5556 26.7155 28.5686 25.9792L28.5666 25.9812Z" fill="#AAA4C2"/>
</g>
</g>
<defs>
<filter id="filter0_f_2285_5572" x="-44.0996" y="-29.4492" width="80.45" height="80.4502" filterUnits="userSpaceOnUse" color-interpolation-filters="sRGB">
<feFlood flood-opacity="0" result="BackgroundImageFix"/>
<feBlend mode="normal" in="SourceGraphic" in2="BackgroundImageFix" result="shape"/>
<feGaussianBlur stdDeviation="12.5" result="effect1_foregroundBlur_2285_5572"/>
</filter>
<filter id="filter1_f_2285_5572" x="13.8008" y="2" width="80.45" height="80.4502" filterUnits="userSpaceOnUse" color-interpolation-filters="sRGB">
<feFlood flood-opacity="0" result="BackgroundImageFix"/>
<feBlend mode="normal" in="SourceGraphic" in2="BackgroundImageFix" result="shape"/>
<feGaussianBlur stdDeviation="12.5" result="effect1_foregroundBlur_2285_5572"/>
</filter>
<clipPath id="clip0_2285_5572">
<rect width="28" height="28" fill="white" transform="translate(11 11)"/>
</clipPath>
</defs>
</svg>
