<svg width="34" height="34" viewBox="0 0 34 34" fill="none" xmlns="http://www.w3.org/2000/svg">
<path d="M26.9167 14.1665L7.08333 14.1665M26.9167 14.1665L29.5575 18.568C30.1494 19.5544 30.4453 20.0476 30.599 20.5786C30.7352 21.049 30.789 21.5395 30.7582 22.0283C30.7233 22.5799 30.5414 23.1256 30.1776 24.2169L29.8832 25.1002C29.3259 26.7722 29.0472 27.6082 28.5303 28.2263C28.0739 28.7721 27.4878 29.1945 26.8256 29.4549C26.0758 29.7498 25.1946 29.7498 23.4322 29.7498L10.5678 29.7498C8.80539 29.7498 7.92417 29.7498 7.17436 29.4549C6.51223 29.1945 5.92608 28.7721 5.46965 28.2263C4.95277 27.6082 4.67411 26.7722 4.11678 25.1002L3.82235 24.2169C3.45857 23.1256 3.27668 22.5799 3.24183 22.0283C3.21094 21.5395 3.26478 21.049 3.40097 20.5785C3.55465 20.0476 3.85058 19.5544 4.44244 18.568L7.08333 14.1665M26.9167 14.1665L27.5078 12.0975C27.788 11.1167 27.9282 10.6262 27.8181 10.2382C27.7217 9.8983 27.5017 9.6067 27.2014 9.42061C26.8585 9.20817 26.3485 9.20817 25.3283 9.20817L8.67165 9.20817C7.65151 9.20817 7.14145 9.20817 6.7986 9.42061C6.49827 9.6067 6.27832 9.8983 6.18189 10.2382C6.07181 10.6262 6.21194 11.1167 6.49219 12.0975L7.08333 14.1665M17 9.20817H11.9911C11.253 9.20817 10.5452 8.90966 10.0234 8.37831C9.50151 7.84695 9.20833 7.12628 9.20833 6.37484C9.20833 5.62339 9.50151 4.90272 10.0234 4.37137C10.5452 3.84001 11.253 3.5415 11.9911 3.5415C15.8869 3.5415 17 9.20817 17 9.20817ZM17 9.20817H22.0089C22.7469 9.20817 23.4547 8.90966 23.9766 8.37831C24.4985 7.84695 24.7917 7.12628 24.7917 6.37484C24.7917 5.62339 24.4985 4.90272 23.9766 4.37137C23.4547 3.84001 22.7469 3.5415 22.0089 3.5415C18.1131 3.5415 17 9.20817 17 9.20817Z" stroke="#515151" stroke-width="1.67" stroke-linecap="round" stroke-linejoin="round"/>
</svg>
