<svg width="81" height="13" viewBox="0 0 81 13" fill="none" xmlns="http://www.w3.org/2000/svg">
<path d="M6.49 9.4278L3.14837 11.47L4.05697 7.65964L1.08167 5.11123L4.98576 4.79971L6.49 1.18262L7.99424 4.79971L11.8983 5.11123L8.92447 7.65964L9.83307 11.47L6.49 9.4278Z" fill="#141414"/>
<path d="M23.47 9.4278L20.1284 11.47L21.0369 7.65964L18.0616 5.11123L21.9657 4.79971L23.47 1.18262L24.9742 4.79971L28.8783 5.11123L25.9045 7.65964L26.8131 11.47L23.47 9.4278Z" fill="#141414"/>
<path d="M40.45 9.4278L37.1084 11.47L38.017 7.65964L35.0417 5.11123L38.9458 4.79971L40.45 1.18262L41.9543 4.79971L45.8584 5.11123L42.8845 7.65964L43.7931 11.47L40.45 9.4278Z" fill="#141414"/>
<path d="M57.43 9.4278L54.0884 11.47L54.997 7.65964L52.0217 5.11123L55.9258 4.79971L57.43 1.18262L58.9342 4.79971L62.8383 5.11123L59.8645 7.65964L60.7731 11.47L57.43 9.4278Z" fill="#141414"/>
<path d="M74.41 9.4278L71.0684 11.47L71.977 7.65964L69.0016 5.11123L72.9057 4.79971L74.41 1.18262L75.9142 4.79971L79.8183 5.11123L76.8445 7.65964L77.7531 11.47L74.41 9.4278Z" fill="#141414"/>
</svg>
