<svg width="44" height="44" viewBox="0 0 44 44" fill="none" xmlns="http://www.w3.org/2000/svg">
<path d="M23.0302 2.34276C23.0971 1.06554 24.1903 0.0719663 25.4534 0.272731C28.1049 0.694173 30.6636 1.59853 33 2.94744C36.0067 4.68336 38.5599 7.10622 40.4508 10.0179C42.3416 12.9297 43.5166 16.2476 43.8795 19.7004C44.2424 23.1532 43.783 26.6429 42.5388 29.8841C41.2946 33.1253 39.3009 36.0261 36.7209 38.3492C34.1408 40.6723 31.0476 42.3518 27.694 43.2504C24.3405 44.1489 20.8219 44.2411 17.426 43.5192C14.7871 42.9583 12.2805 41.9183 10.028 40.4573C8.95498 39.7613 8.80745 38.2915 9.61234 37.2975L10.8511 35.7678C11.656 34.7738 13.1075 34.638 14.2108 35.2849C15.6304 36.1173 17.1787 36.7192 18.7982 37.0635C21.1753 37.5688 23.6383 37.5043 25.9858 36.8753C28.3333 36.2463 30.4986 35.0706 32.3046 33.4444C34.1107 31.8183 35.5062 29.7877 36.3771 27.5189C37.2481 25.25 37.5697 22.8072 37.3156 20.3903C37.0616 17.9733 36.2392 15.6508 34.9155 13.6126C33.5919 11.5744 31.8047 9.87835 29.7 8.66321C28.2662 7.8354 26.7128 7.24677 25.1008 6.91541C23.848 6.65788 22.8602 5.58571 22.9272 4.30849L23.0302 2.34276Z" fill="#AAA4C2"/>
<path d="M20.9704 2.355C20.9032 1.07102 19.8042 0.0721199 18.5345 0.274652C15.0867 0.82462 11.8074 2.18946 8.97571 4.26958C5.51639 6.8107 2.87598 10.3083 1.3798 14.3314C-0.116394 18.3546 -0.403011 22.7275 0.555256 26.9115C1.33968 30.3365 2.93022 33.5124 5.18083 36.1815C6.00964 37.1645 7.49427 37.1264 8.38419 36.1984L9.72966 34.7954C10.6196 33.8674 10.572 32.4026 9.78863 31.3831C8.44397 29.6331 7.48542 27.6069 6.98868 25.4381C6.31789 22.5092 6.51852 19.4482 7.56586 16.632C8.61319 13.8158 10.4615 11.3675 12.883 9.58871C14.6762 8.27146 16.7258 7.36398 18.8872 6.91787C20.1464 6.65798 21.1395 5.58023 21.0722 4.29625L20.9704 2.355Z" fill="#F4F0FF"/>
</svg>
